<svg id="图层_1" data-name="图层 1" xmlns="http://www.w3.org/2000/svg" viewBox="0 0 200 200"><defs><style>.cls-1{fill:#23a06f;}.cls-1,.cls-2{fill-rule:evenodd;}.cls-2{fill:#006eb6;}</style></defs><title>20 劳勤2_logo</title><path class="cls-1" d="M38.5,71.26,33.64,98.79v.48l21,.16q2.52-14.09,5-28.17Zm12,23.32-10.68.16Q41.5,85.35,43.19,76l.33-.17H53.87q-1.69,9.39-3.4,18.79"/><path class="cls-1" d="M11,75.63v.49H27.66v.16c-.44,2.1-.87,4.21-1.3,6.31H10.5L7.59,99.27h21c.32-1.51.64-3,1-4.53H13.9l1.29-7.29,15.7-.16q1.29-8,2.59-16H12c-.33,1.46-.65,2.91-1,4.37"/><path class="cls-1" d="M75.56,71.42H70.22c-.16,1.24-.32,2.48-.49,3.73h-4c-.22,1.67-.43,3.34-.65,5h3.89l-.33,3.56h5.18c.16-1.19.32-2.38.49-3.56h4.2c.17-1.68.33-3.35.49-5H75.08l.48-3.73"/><path class="cls-1" d="M182.38,78.06c.32-2.32.65-4.64,1-7h-5.5l-1.14,7h-3.88c-.38,1.89-.75,3.78-1.13,5.67h3.56l-7.77,45.17h6c2.64-15,7.93-45.08,7.93-45.08l4.37-.09L180,123.83l-4.21,0,1.62,5h8.09l7-50.84Z"/><path class="cls-2" d="M122.82,71.26h-6.15c-.11,1.3-.22,2.59-.32,3.89H103.72l.33-3.89H97.9l-.33,3.89H87.7c-.22,1.72-.43,3.45-.65,5.18h9.71c-.21,2.1-.43,4.21-.64,6.31h6.47l.81-6.31h12.14c-.22,2.1-.43,4.21-.65,6.31h6.47c.22-2.1.43-4.21.65-6.31h10.52c.22-1.73.43-3.46.65-5.18H122.5c.1-1.3.21-2.59.32-3.89"/><path class="cls-2" d="M166.68,87.45l.81-7h3.4c.21-1.67.43-3.35.65-5h-3.4c.1-1.46.21-2.91.32-4.37h-5.34c-.16,1.46-.32,2.91-.49,4.37h-9.38l.48-4.37h-5.5c-.16,1.46-.32,2.91-.49,4.37h-3.23L143.7,80v.49h3.56c-.38,2.27-.76,4.53-1.13,6.8v.16h7.76c-.1.87-.21,1.73-.32,2.59H142.89q-.9,6.81-1.78,13.6v.49h10.68c-.11.86-.22,1.73-.32,2.59L141,106.56c-.22,1.4-.44,2.8-.65,4.21v.48h10.52c-.11,1-.22,2-.32,2.92H140.3c-.22,1.56-.43,3.13-.65,4.69h10.2c-.22,1.51-.65,4.78-.65,4.78l-10.36.09-.32,5.17h26.06c.21-1.73.43-3.45.64-5.18h-9.87c.16-1.56.32-3.13.49-4.7l9.38-.16c.16-1.56.33-3.13.49-4.69h-9.23l.33-2.75,9.55-.17c.21-1.45.43-2.91.64-4.37v-.16h-9.38c-.06-.11-.11-.22-.17-.32l.33-2.27h9.87l1.62-13.76V90.2l-10-.16.33-2.59ZM152.28,99.6h-6.15c.21-1.84.43-3.68.64-5.51h6.15c-.21,1.83-.43,3.67-.64,5.51m12.46-5.51c-.16,1.78-.33,3.56-.49,5.34l-6,.17q.33-2.76.65-5.51Zm-12.3-10c.11-1.19.21-2.37.32-3.56h9.39l-.33,3.4-9.38.16"/><path class="cls-2" d="M84.3,102.19v.16h6.15q.57-4,1.13-8.1h32.86q-.57,4.05-1.13,8.1h6.47l1.62-13.93H86.08q-.89,6.89-1.78,13.77"/><path class="cls-1" d="M106.31,99.6,99,99.43l-2.43,5.18H84.14l-.81,6.32h9.55v.16Q88.76,120,84.62,128.9h7.94l8.41-18h20.56c-.6,4-1.79,12-1.79,12h-14.4l1.94,5.67,18.78.32s2.05-16.19,3.07-24.29H104.05l2.26-5"/></svg>